<svg width="28" height="24" viewBox="0 0 28 24" fill="none" xmlns="http://www.w3.org/2000/svg">
<path d="M3.75738 3.75739C3.20023 4.31454 2.75826 4.97598 2.45673 5.70393C2.1552 6.43189 2 7.21211 2 8.00005C2 8.78799 2.1552 9.56821 2.45673 10.2962C2.75826 11.0241 3.20023 11.6856 3.75738 12.2427L14.0001 22.4854L24.2427 12.2427C25.3679 11.1175 26.0001 9.59136 26.0001 8.00005C26.0001 6.40874 25.3679 4.88261 24.2427 3.75739C23.1175 2.63216 21.5914 2.00002 20.0001 2.00002C18.4087 2.00002 16.8826 2.63216 15.7574 3.75739L14.0001 5.51472L12.2427 3.75739C11.6856 3.20023 11.0241 2.75826 10.2962 2.45673C9.56821 2.1552 8.78799 2 8.00005 2C7.21211 2 6.43189 2.1552 5.70393 2.45673C4.97598 2.75826 4.31454 3.20023 3.75738 3.75739Z" stroke="black" stroke-width="2.66667" stroke-linecap="round" stroke-linejoin="round"/>
</svg>
